<svg width="163" height="23" viewBox="0 0 163 23" fill="none" xmlns="http://www.w3.org/2000/svg">
<path d="M0.72 2.448H7.26V9H9.588V2.448H15.528L16.548 0.599999H0.72V2.448ZM32.1819 2.448L33.2139 0.599999H20.1339C19.1139 0.599999 18.2859 1.428 18.2859 2.448V7.152C18.2859 8.172 19.1139 9 20.1339 9H32.1819L33.2139 7.152H20.6139V5.724H30.7179L31.7379 3.876H20.6139V2.448H32.1819ZM47.7199 0.599999V7.872L39.8959 0.599999H35.3719V9H37.6999V1.728L45.5359 9H50.0599V0.599999H47.7199ZM54.7858 2.448V7.152H67.3858L66.3658 9H54.3058C53.2858 9 52.4578 8.172 52.4578 7.152V2.448C52.4578 1.428 53.2858 0.599999 54.3058 0.599999H67.3858L66.3658 2.448H54.7858ZM83.4398 2.448L84.4718 0.599999H71.3918C70.3718 0.599999 69.5438 1.428 69.5438 2.448V7.152C69.5438 8.172 70.3718 9 71.3918 9H83.4398L84.4718 7.152H71.8717V5.724H81.9758L82.9958 3.876H71.8717V2.448H83.4398ZM98.9777 0.599999V7.872L91.1537 0.599999H86.6297V9H88.9577V1.728L96.7937 9H101.318V0.599999H98.9777ZM103.236 2.448H109.776V9H112.104V2.448H118.044L119.064 0.599999H103.236V2.448ZM14.184 19.28C15.156 19.04 15.888 18.164 15.888 17.108V16.7C15.888 15.536 14.94 14.6 13.788 14.6H0.696L1.716 16.448H13.476V18.44H1.2V23H3.516V20.288H12.084L13.38 23H15.948L14.184 19.28ZM31.1259 14.6H20.1339C19.1139 14.6 18.2859 15.428 18.2859 16.448V21.152C18.2859 22.172 19.1139 23 20.1339 23H20.6139V16.448H30.6459V21.152H21.5379L22.5579 23H31.1259C32.1459 23 32.9739 22.172 32.9739 21.152V16.448C32.9739 15.428 32.1459 14.6 31.1259 14.6ZM47.9599 18.8C49.1239 18.8 50.0599 17.864 50.0599 16.7C50.0599 15.536 49.1239 14.6 47.9599 14.6H35.3719V23H37.6999V16.448H47.6479V17.876H38.6239L39.6439 19.724H47.6479V21.152H38.6239L39.6439 23H47.9599C49.0999 23 50.0599 22.088 50.0599 20.876C50.0479 19.724 49.1119 18.8 47.9599 18.8ZM65.2978 14.6H54.3058C53.2858 14.6 52.4578 15.428 52.4578 16.448V21.152C52.4578 22.172 53.2858 23 54.3058 23H54.7858V16.448H64.8178V21.152H55.7098L56.7298 23H65.2978C66.3178 23 67.1458 22.172 67.1458 21.152V16.448C67.1458 15.428 66.3178 14.6 65.2978 14.6ZM69.0638 16.448H75.6038V23H77.9318V16.448H83.8718L84.8918 14.6H69.0638V16.448ZM100.586 16.448L101.618 14.6H86.6297V16.448H92.8097V21.152H86.6297V23H100.586L101.618 21.152H95.1377V16.448H100.586ZM106.044 16.448V21.152H118.644L117.624 23H105.564C104.544 23 103.716 22.172 103.716 21.152V16.448C103.716 15.428 104.544 14.6 105.564 14.6H118.644L117.624 16.448H106.044ZM133.882 17.876H123.13V16.448H134.458L135.49 14.6H122.638C121.63 14.6 120.802 15.428 120.802 16.448V18.128C120.802 19.016 121.522 19.724 122.41 19.724H133.162V21.152H120.502L121.522 23H133.654C134.662 23 135.49 22.172 135.49 21.152V19.484C135.49 18.596 134.77 17.876 133.882 17.876ZM162.27 23L155.67 18.716L162.03 14.6H158.238L153.774 17.492L149.31 14.6H145.518L151.878 18.716L145.278 23H149.058L153.774 19.952L158.49 23H162.27Z" fill="black"/>
</svg>
